<?xml version="1.0" standalone="no"?>
<!DOCTYPE svg PUBLIC "-//W3C//DTD SVG 20010904//EN"
 "http://www.w3.org/TR/2001/REC-SVG-20010904/DTD/svg10.dtd">
<svg version="1.0" xmlns="http://www.w3.org/2000/svg"
 width="512.000000pt" height="512.000000pt" viewBox="0 0 512.000000 512.000000"
 preserveAspectRatio="xMidYMid meet">
<metadata>
Created by potrace 1.11, written by Peter Selinger 2001-2013
</metadata>
<g transform="translate(0.000000,512.000000) scale(0.100000,-0.100000)"
fill="#000000" stroke="none">
<path d="M3631 4228 c-5 -13 -12 -38 -16 -57 -9 -41 -25 -24 -25 27 0 23 -5
32 -16 32 -15 0 -16 -8 -10 -57 4 -32 9 -70 11 -84 4 -40 -8 -54 -36 -39 -20
11 -25 10 -41 -10 -10 -12 -18 -31 -18 -42 0 -14 -5 -18 -15 -14 -18 7 -19 -9
-4 -53 7 -19 34 -49 68 -76 31 -24 63 -51 72 -59 21 -17 33 -72 54 -241 21
-171 33 -232 56 -277 19 -37 19 -38 -2 -59 -12 -12 -30 -41 -40 -65 -21 -47
-41 -62 -89 -67 -17 -2 -38 -11 -46 -19 -14 -14 -19 -14 -45 -1 -28 14 -29 18
-28 74 2 53 5 61 27 72 34 16 47 65 32 126 -6 25 -15 65 -20 89 -14 63 -30 91
-72 125 -75 60 -163 46 -237 -38 -26 -30 -29 -41 -29 -97 1 -35 -3 -72 -9 -82
-15 -27 8 -130 30 -134 20 -4 29 -33 25 -82 -5 -54 -68 -78 -116 -44 -15 10
-22 11 -22 3 0 -9 -4 -9 -15 1 -8 6 -18 9 -24 6 -21 -13 -63 24 -91 80 -36 72
-55 98 -69 89 -17 -10 -13 3 9 33 27 38 50 142 50 237 1 102 13 165 35 181 10
8 15 20 12 29 -11 27 15 65 64 92 27 14 60 43 75 64 l26 38 -27 33 c-16 19
-23 34 -16 36 15 5 13 33 -4 56 -14 18 -16 18 -33 3 -33 -30 -45 -18 -16 16
42 50 69 127 45 127 -5 0 -23 -22 -40 -50 -32 -52 -58 -68 -45 -27 25 78 29
117 10 117 -8 0 -20 -24 -30 -60 -18 -62 -41 -74 -30 -15 3 20 1 35 -6 40 -6
4 -13 5 -15 3 -2 -2 -7 -46 -11 -98 -8 -118 -40 -258 -65 -286 -11 -11 -17
-27 -14 -35 3 -8 -15 -64 -41 -124 -66 -158 -80 -202 -88 -270 -4 -33 -11 -81
-17 -107 -10 -42 -8 -53 12 -95 15 -31 19 -48 11 -51 -34 -11 -63 -48 -78
-100 -9 -31 -25 -82 -35 -114 -13 -38 -16 -71 -13 -105 7 -53 -1 -65 -46 -76
-23 -6 -28 -1 -53 53 -23 48 -40 68 -89 102 -47 33 -70 58 -100 112 -21 38
-53 85 -70 105 -39 45 -68 109 -73 164 -2 23 -17 85 -35 137 -17 52 -40 154
-51 225 -11 72 -24 144 -28 161 -5 17 -6 54 -3 83 4 43 1 58 -18 83 -18 24
-21 40 -18 88 1 32 0 62 -4 65 -9 9 -25 -28 -33 -76 -7 -46 -29 -67 -49 -49
-27 21 -59 7 -87 -40 -28 -45 -37 -90 -19 -90 5 0 16 -16 25 -35 9 -19 37 -51
61 -71 76 -61 78 -69 63 -184 -10 -82 -10 -122 0 -213 7 -62 20 -130 28 -152
8 -22 21 -65 28 -95 8 -30 50 -165 95 -300 l82 -245 -12 -130 c-7 -74 -17
-133 -24 -137 -9 -6 -114 0 -123 7 -2 0 -16 55 -33 121 -21 82 -33 164 -40
264 -6 80 -15 171 -20 204 -5 32 -7 100 -3 151 l6 92 -34 25 c-42 30 -79 34
-79 8 0 -10 -4 -20 -10 -22 -16 -5 4 -139 23 -153 13 -9 16 -34 17 -141 2
-208 4 -192 -32 -207 -45 -20 -67 -47 -83 -104 -12 -48 -17 -46 -30 10 -3 16
-16 39 -28 51 -22 21 -22 26 -19 240 3 197 2 219 -14 237 -14 16 -15 19 -2 14
11 -4 17 2 21 24 3 16 24 71 45 123 30 70 45 127 62 231 12 75 28 150 36 166
20 41 9 137 -17 144 -11 3 -19 12 -19 21 0 8 -11 39 -24 68 -12 29 -26 61 -29
71 -4 9 -11 17 -17 17 -12 0 -12 -4 -1 -52 5 -21 6 -38 2 -38 -3 1 -21 21 -39
45 -30 42 -52 57 -52 37 0 -5 13 -28 30 -50 34 -47 37 -57 15 -49 -17 7 -30
-9 -15 -18 17 -10 70 -132 70 -159 0 -14 -10 -56 -21 -93 -12 -38 -28 -90 -37
-118 -8 -27 -30 -81 -47 -120 -46 -99 -65 -160 -65 -205 0 -21 -4 -41 -9 -44
-5 -3 -12 -21 -15 -40 -5 -26 -12 -35 -32 -39 -19 -3 -28 1 -38 22 -54 104
-179 145 -266 87 -22 -14 -46 -38 -53 -53 -21 -41 -50 -181 -48 -235 0 -26 -3
-49 -8 -52 -19 -12 -29 24 -36 134 -4 68 -14 138 -26 172 -10 32 -19 74 -19
95 0 21 -12 70 -26 108 -71 192 -124 366 -124 406 0 28 52 143 70 154 15 9 12
25 -5 25 -21 0 -19 7 15 50 16 21 30 43 30 49 0 20 -35 -5 -61 -43 -13 -20
-28 -36 -33 -36 -8 0 -6 8 10 68 4 13 2 22 -5 22 -10 0 -66 -112 -77 -156 -3
-12 -14 -24 -23 -27 -26 -6 -35 -87 -16 -134 8 -19 22 -96 31 -171 13 -107 25
-159 55 -239 22 -57 39 -113 39 -124 0 -14 5 -19 14 -16 11 4 11 -1 -2 -26
-22 -43 -24 -424 -3 -540 12 -67 12 -80 0 -87 -11 -7 -11 -15 -1 -43 12 -34
10 -51 -10 -94 -6 -12 -9 -49 -6 -82 2 -34 2 -60 -1 -58 -3 1 -18 9 -33 16
-28 14 -33 34 -44 174 -5 61 -8 67 -25 62 -15 -5 -19 -1 -19 14 0 12 -4 21 -9
21 -5 0 -7 -10 -4 -22 5 -22 4 -22 -22 4 -20 19 -28 37 -28 60 0 18 -7 38 -16
44 -12 10 -13 18 -4 50 25 87 24 219 -2 374 -3 14 -12 71 -22 127 l-17 102 32
65 c18 35 32 67 32 71 0 12 -92 95 -105 95 -8 0 -16 23 -21 55 -12 75 -29 66
-29 -16 0 -49 -4 -70 -18 -83 -22 -22 -21 -32 3 -147 11 -52 23 -158 27 -235
l6 -142 -42 3 c-23 1 -44 -2 -47 -6 -12 -20 -31 -5 -69 52 -22 33 -55 69 -74
80 -40 24 -121 37 -121 20 0 -6 -10 -11 -23 -11 -23 0 -97 -66 -97 -86 0 -6
-9 -19 -20 -29 -11 -10 -20 -23 -20 -29 0 -6 4 -4 10 4 5 8 11 12 15 9 3 -3
-4 -18 -16 -32 -11 -15 -17 -27 -12 -27 4 0 6 -21 4 -46 -2 -35 -8 -48 -22
-51 -10 -3 -19 -9 -19 -14 0 -5 7 -5 17 -2 10 4 14 2 9 -5 -3 -6 -2 -14 4 -17
13 -8 -6 -35 -24 -35 -7 0 -12 -8 -13 -19 -1 -14 3 -17 17 -14 15 4 18 1 13
-16 -3 -11 -11 -26 -19 -32 -8 -6 -14 -17 -14 -23 0 -6 11 3 25 19 26 32 33
20 17 -27 -5 -13 -5 -34 -1 -48 l7 -25 1 27 c1 15 6 30 12 34 7 4 10 -6 7 -32
-2 -33 0 -39 15 -36 38 6 14 -24 -33 -41 l-50 -18 0 -1209 0 -1210 2560 0
2560 0 0 1237 c0 749 -4 1233 -9 1227 -5 -5 -11 -20 -13 -34 -1 -14 -7 -25
-13 -25 -5 0 -11 11 -13 25 -2 14 -5 31 -7 38 -8 22 -35 -12 -36 -45 -1 -27
-1 -27 -12 7 l-12 35 -3 -52 c-3 -52 -14 -68 -26 -38 -3 8 -10 15 -15 15 -5 0
4 -25 21 -55 l29 -54 -17 -58 c-10 -32 -21 -62 -24 -66 -7 -8 -22 42 -55 180
-10 42 -9 57 2 83 7 18 13 42 13 53 0 11 9 31 21 43 17 18 22 42 29 121 4 54
20 141 35 193 31 106 37 253 17 365 -10 52 -15 267 -10 375 4 80 -2 171 -12
165 -5 -3 -10 -24 -10 -46 0 -21 -4 -39 -10 -39 -5 0 -10 22 -10 49 0 28 -4
53 -10 56 -6 4 -10 -14 -10 -47 0 -38 -3 -49 -10 -38 -5 8 -10 31 -10 50 0 19
-5 42 -10 50 -7 10 -10 -5 -10 -53 0 -62 -2 -68 -19 -62 -14 4 -20 0 -25 -17
-12 -45 -5 -74 29 -128 29 -45 35 -63 35 -110 0 -77 -27 -272 -39 -279 -5 -3
-14 -35 -21 -71 -6 -36 -16 -80 -21 -98 -8 -24 -8 -37 1 -47 10 -12 7 -21 -14
-46 -14 -17 -26 -34 -26 -38 0 -11 -58 -71 -69 -71 -7 0 -9 14 -4 38 10 61 7
195 -6 235 -9 28 -23 43 -51 57 -68 35 -132 21 -177 -38 -26 -34 -28 -44 -28
-128 0 -65 -4 -97 -16 -114 l-15 -24 -41 41 c-31 31 -40 47 -36 63 3 12 1 32
-6 46 -6 13 -16 35 -22 48 -7 14 -9 31 -6 40 3 8 -1 20 -9 26 -8 7 -14 18 -14
25 0 6 -14 32 -32 56 -31 42 -51 98 -85 239 -19 80 -20 177 -4 248 11 48 10
57 -7 91 -11 20 -23 56 -27 80 -6 38 -9 41 -22 28 -8 -8 -18 -39 -22 -68 l-7
-54 -16 35 c-15 34 -16 32 -10 -65 2 -55 8 -107 12 -115 4 -8 11 -53 14 -100
4 -47 9 -112 13 -145 3 -33 7 -114 8 -180 2 -103 7 -134 34 -219 21 -66 31
-119 31 -160 0 -44 6 -73 22 -101 46 -85 69 -159 62 -198 -6 -35 -10 -39 -100
-83 -52 -26 -98 -44 -101 -40 -3 3 -11 1 -18 -4 -8 -7 -18 4 -35 40 -20 42
-22 59 -17 119 5 56 1 88 -18 156 -17 64 -21 94 -15 122 6 26 4 47 -6 71 -8
19 -14 45 -14 58 0 16 -5 22 -14 18 -9 -4 -15 8 -20 42 -7 54 -20 74 -49 74
-18 0 -19 4 -14 53 4 29 14 74 23 100 28 83 -4 260 -81 447 -30 73 -55 136
-55 142 0 5 -11 33 -24 61 -14 29 -36 88 -50 131 -23 72 -24 82 -10 107 19 38
19 139 -1 139 -11 0 -13 8 -8 30 7 36 -13 42 -26 8z m-87 -244 c36 -36 5 -74
-34 -42 -16 14 -21 22 -12 25 6 3 12 11 12 19 0 18 15 18 34 -2z m-466 -32 c4
-37 -7 -41 -33 -12 -15 16 -16 22 -5 35 19 23 35 13 38 -23z m-1578 -1116 c0
-45 -13 -68 -23 -42 -8 20 3 86 14 86 5 0 9 -20 9 -44z m2355 27 c4 -10 10
-90 15 -178 4 -88 13 -173 19 -189 9 -24 9 -37 -4 -68 -8 -21 -18 -63 -21 -93
-8 -67 -18 -63 -20 9 -2 53 -21 103 -55 139 -10 12 -19 26 -19 33 0 6 -9 23
-20 37 -11 14 -20 32 -20 41 0 39 96 286 111 286 4 0 10 -8 14 -17z m-927
-208 c41 -83 41 -101 1 -109 -54 -10 -61 -8 -49 13 16 30 12 51 -12 71 l-23
18 19 36 c11 20 22 36 25 36 4 0 21 -29 39 -65z m-2814 -121 c3 -8 2 -12 -4
-9 -6 3 -10 10 -10 16 0 14 7 11 14 -7z m36 -19 c0 -5 -5 -3 -10 5 -5 8 -10
20 -10 25 0 6 5 3 10 -5 5 -8 10 -19 10 -25z m0 -35 c0 -5 -2 -10 -4 -10 -3 0
-8 5 -11 10 -3 6 -1 10 4 10 6 0 11 -4 11 -10z m1593 -161 l-6 -67 -32 1 c-32
1 -33 2 -28 36 3 20 14 51 25 70 11 19 22 57 26 85 l7 51 6 -55 c4 -30 4 -85
2 -121z m3357 32 c0 -11 -4 -23 -10 -26 -6 -4 -10 5 -10 19 0 14 5 26 10 26 6
0 10 -9 10 -19z m-825 -11 c9 -28 1 -37 -39 -44 -41 -8 -67 -43 -70 -95 -1
-20 -12 -52 -24 -71 -12 -19 -22 -38 -22 -42 0 -5 -4 -8 -9 -8 -11 0 -28 44
-35 90 -2 19 -8 50 -12 68 -4 22 -3 32 6 32 6 0 19 9 28 20 10 11 49 31 87 44
87 30 82 30 90 6z m-428 -122 c-9 -5 -23 -16 -32 -24 -19 -19 -28 -14 -19 10
3 9 15 16 26 16 12 0 22 9 26 23 6 20 7 20 10 3 2 -10 -3 -23 -11 -28z m-1712
-105 c-8 -55 -25 -82 -25 -39 0 15 -5 36 -10 47 -13 24 -5 39 22 39 19 0 20
-4 13 -47z m2925 -230 c0 -22 -2 -25 -10 -13 -13 20 -13 40 0 40 6 0 10 -12
10 -27z"/>
<path d="M1 2894 c0 -11 3 -14 6 -6 3 7 2 16 -1 19 -3 4 -6 -2 -5 -13z"/>
<path d="M5 2700 c-3 -5 -2 -10 4 -10 5 0 13 5 16 10 3 6 2 10 -4 10 -5 0 -13
-4 -16 -10z"/>
</g>
</svg>
